<svg xmlns="http://www.w3.org/2000/svg" viewBox="0 0 960 660" role="img" aria-label="Group type reference matrix: Shell, Solid, Rod, and Static columns showing accepted object types, material models, relevant material parameters, pin storage, and default overlay color for each type">
  <title>Group type reference matrix</title>
  <desc>
    A four-column comparison matrix covering the four group types Shell,
    Solid, Rod, and Static. Column headers show each type's default
    overlay color swatch and a short tagline. Rows cover: accepted
    object types (Shell/Solid/Static accept mesh only, Rod accepts mesh
    plus Bezier curves); default material model
    (Baraff-Witkin for Shell, ARAP for Solid and Rod, none for Static);
    available material models (Shell: Baraff-Witkin, Stable NeoHookean,
    ARAP; Solid: Stable NeoHookean, ARAP; Rod: ARAP only; Static:
    none); density units (kg/m² for Shell, kg/m³ for Solid, kg/m for
    Rod); Young's modulus; Poisson's ratio (Shell and Solid only);
    Bend Stiffness (Shell and Rod, using the same shared `bend`
    property); Shrink (anisotropic X/Y
    on Shell, uniform on Solid); Strain Limit (Shell and Rod);
    Inflate (Shell only); Friction and Contact Gap (all four); pin
    storage (Shell/Solid: Blender vertex groups; Rod: internal
    _pin_name custom property on curves; Static: none, replaced by
    per-object Transform ops). Cells with a green check mean the
    feature is available; cells showing a gray "n/a" mean it is not.
  </desc>

  <defs>
    <pattern id="stripe-shell" patternUnits="userSpaceOnUse" width="4" height="4">
      <rect width="4" height="4" fill="#f6fbf4" />
    </pattern>
  </defs>

  <style>
    .title       { font: 700 17px -apple-system, BlinkMacSystemFont, "Segoe UI", sans-serif; fill: #1a1a1a; }
    .sub         { font: 13px -apple-system, sans-serif; fill: #555; }

    .row-lbl     { font: 700 12px -apple-system, sans-serif; fill: #1a1a1a; }
    .row-sub     { font: italic 10.5px -apple-system, sans-serif; fill: #777; }

    .col-hdr-box { stroke: #7788aa; stroke-width: 1.3; }
    .col-hdr     { font: 700 15px -apple-system, sans-serif; fill: #1a1a1a; }
    .col-sub     { font: 11px -apple-system, sans-serif; fill: #444; }

    .cell        { font: 11px -apple-system, sans-serif; fill: #1a1a1a; }
    .cell-mono   { font: 600 10.5px "Menlo", "Consolas", monospace; fill: #1a1a1a; }
    .cell-muted  { font: 11px -apple-system, sans-serif; fill: #aaa; }
    .check       { font: 700 14px -apple-system, sans-serif; fill: #2a8a2a; }

    .grid-h      { stroke: #dcdcdc; stroke-width: 1; }
    .grid-v      { stroke: #e5e5e5; stroke-width: 1; }
    .band        { fill: #fafafa; }

    .sw-shell    { fill: rgb(192, 255, 192); stroke: #2a8a2a; stroke-width: 1.2; }
    .sw-solid    { fill: rgb(255, 192, 192); stroke: #a83838; stroke-width: 1.2; }
    .sw-rod      { fill: rgb(255, 242, 180); stroke: #a88a00; stroke-width: 1.2; }
    .sw-static   { fill: rgb(190, 210, 255); stroke: #3860a8; stroke-width: 1.2; }

    .hdr-shell   { fill: #eef6eb; }
    .hdr-solid   { fill: #f8ecec; }
    .hdr-rod     { fill: #fbf6e4; }
    .hdr-static  { fill: #ecf0f8; }
  </style>

  <!-- Title -->
  <text x="20" y="30" class="title">Group type reference. What each type accepts, models, and exposes</text>
  <text x="20" y="50" class="sub">Pick a type for each group; the cells below are what the solver will then offer or ignore.</text>

  <!-- Column positions: label col x=20-210, then 4 cols of width 180 starting at x=210 -->
  <!-- Shell: 210-390, Solid: 390-570, Rod: 570-750, Static: 750-930 -->

  <!-- Column header band -->
  <rect x="210" y="80" width="180" height="66" class="hdr-shell col-hdr-box" rx="6" />
  <rect x="390" y="80" width="180" height="66" class="hdr-solid col-hdr-box" rx="6" />
  <rect x="570" y="80" width="180" height="66" class="hdr-rod col-hdr-box" rx="6" />
  <rect x="750" y="80" width="180" height="66" class="hdr-static col-hdr-box" rx="6" />

  <!-- Color swatches in headers -->
  <rect x="228" y="94" width="22" height="16" rx="3" class="sw-shell" />
  <text x="260" y="108" class="col-hdr">Shell</text>
  <text x="228" y="128" class="col-sub">Thin surfaces: cloth,</text>
  <text x="228" y="140" class="col-sub">panels, sheets</text>

  <rect x="408" y="94" width="22" height="16" rx="3" class="sw-solid" />
  <text x="440" y="108" class="col-hdr">Solid</text>
  <text x="408" y="128" class="col-sub">Volumetric bodies:</text>
  <text x="408" y="140" class="col-sub">tets, rubber, flesh</text>

  <rect x="588" y="94" width="22" height="16" rx="3" class="sw-rod" />
  <text x="620" y="108" class="col-hdr">Rod</text>
  <text x="588" y="128" class="col-sub">1D structures:</text>
  <text x="588" y="140" class="col-sub">ropes, wires, hair</text>

  <rect x="768" y="94" width="22" height="16" rx="3" class="sw-static" />
  <text x="800" y="108" class="col-hdr">Static</text>
  <text x="768" y="128" class="col-sub">Non-deforming</text>
  <text x="768" y="140" class="col-sub">collision objects</text>

  <!-- Row grid: start y=160, row height=34, 14 rows -->
  <!-- Row shading for odd rows -->
  <rect x="20" y="160" width="910" height="34" class="band" />
  <rect x="20" y="228" width="910" height="34" class="band" />
  <rect x="20" y="296" width="910" height="34" class="band" />
  <rect x="20" y="364" width="910" height="34" class="band" />
  <rect x="20" y="432" width="910" height="34" class="band" />
  <rect x="20" y="500" width="910" height="34" class="band" />
  <rect x="20" y="568" width="910" height="34" class="band" />

  <!-- Vertical grid separators -->
  <line x1="210" y1="160" x2="210" y2="636" class="grid-v" />
  <line x1="390" y1="160" x2="390" y2="636" class="grid-v" />
  <line x1="570" y1="160" x2="570" y2="636" class="grid-v" />
  <line x1="750" y1="160" x2="750" y2="636" class="grid-v" />

  <!-- Row 1: Accepted object types  (y=160) -->
  <text x="28" y="180" class="row-lbl">Accepted object types</text>
  <text x="220" y="180" class="cell-mono">Mesh</text>
  <text x="400" y="180" class="cell-mono">Mesh</text>
  <text x="580" y="180" class="cell-mono">Mesh + Curve</text>
  <text x="580" y="192" class="row-sub">(Bezier)</text>
  <text x="760" y="180" class="cell-mono">Mesh</text>
  <line x1="20" y1="194" x2="930" y2="194" class="grid-h" />

  <!-- Row 2: Default material model (y=194) -->
  <text x="28" y="215" class="row-lbl">Default material model</text>
  <text x="220" y="215" class="cell-mono">Baraff-Witkin</text>
  <text x="400" y="215" class="cell-mono">ARAP</text>
  <text x="580" y="215" class="cell-mono">ARAP</text>
  <text x="760" y="215" class="cell-muted">n/a</text>
  <line x1="20" y1="228" x2="930" y2="228" class="grid-h" />

  <!-- Row 3: Available material models (y=228) -->
  <text x="28" y="247" class="row-lbl">Available material models</text>
  <text x="220" y="247" class="cell-mono">Baraff-Witkin</text>
  <text x="220" y="259" class="cell-mono">Stable NeoHookean, ARAP</text>
  <text x="400" y="247" class="cell-mono">Stable NeoHookean</text>
  <text x="400" y="259" class="cell-mono">ARAP</text>
  <text x="580" y="247" class="cell-mono">ARAP</text>
  <text x="580" y="259" class="row-sub">(only option)</text>
  <text x="760" y="253" class="cell-muted">n/a</text>
  <line x1="20" y1="262" x2="930" y2="262" class="grid-h" />

  <!-- Row 4: Density (y=262) -->
  <text x="28" y="283" class="row-lbl">Density</text>
  <text x="220" y="283" class="cell-mono">shell_density</text>
  <text x="220" y="295" class="row-sub">kg/m² (areal)</text>
  <text x="400" y="283" class="cell-mono">solid_density</text>
  <text x="400" y="295" class="row-sub">kg/m³ (volumetric)</text>
  <text x="580" y="283" class="cell-mono">rod_density</text>
  <text x="580" y="295" class="row-sub">kg/m (line)</text>
  <text x="760" y="289" class="cell-muted">n/a</text>
  <line x1="20" y1="296" x2="930" y2="296" class="grid-h" />

  <!-- Row 5: Young's modulus (y=296) -->
  <text x="28" y="317" class="row-lbl">Young's Modulus (Pa/ρ)</text>
  <text x="220" y="317" class="check">✓</text>
  <text x="400" y="317" class="check">✓</text>
  <text x="580" y="317" class="check">✓</text>
  <text x="760" y="317" class="cell-muted">n/a</text>
  <line x1="20" y1="330" x2="930" y2="330" class="grid-h" />

  <!-- Row 6: Poisson's ratio (y=330) -->
  <text x="28" y="351" class="row-lbl">Poisson's Ratio</text>
  <text x="220" y="351" class="check">✓</text>
  <text x="400" y="351" class="check">✓</text>
  <text x="580" y="351" class="cell-muted">n/a</text>
  <text x="760" y="351" class="cell-muted">n/a</text>
  <line x1="20" y1="364" x2="930" y2="364" class="grid-h" />

  <!-- Row 7: Bend Stiffness (y=364) -->
  <text x="28" y="385" class="row-lbl">Bend Stiffness</text>
  <text x="220" y="385" class="check">✓</text>
  <text x="400" y="385" class="cell-muted">n/a</text>
  <text x="580" y="385" class="check">✓</text>
  <text x="580" y="397" class="row-sub">(shared `bend` property)</text>
  <text x="760" y="385" class="cell-muted">n/a</text>
  <line x1="20" y1="398" x2="930" y2="398" class="grid-h" />

  <!-- Row 8: Shrink (y=398) -->
  <text x="28" y="419" class="row-lbl">Shrink</text>
  <text x="220" y="419" class="check">✓</text>
  <text x="220" y="431" class="row-sub">Shrink X / Y (anisotropic)</text>
  <text x="400" y="419" class="check">✓</text>
  <text x="400" y="431" class="row-sub">Shrink (uniform)</text>
  <text x="580" y="419" class="cell-muted">n/a</text>
  <text x="760" y="419" class="cell-muted">n/a</text>
  <line x1="20" y1="432" x2="930" y2="432" class="grid-h" />

  <!-- Row 9: Strain Limit (y=432) -->
  <text x="28" y="453" class="row-lbl">Strain Limit</text>
  <text x="220" y="453" class="check">✓</text>
  <text x="400" y="453" class="cell-muted">n/a</text>
  <text x="580" y="453" class="check">✓</text>
  <text x="760" y="453" class="cell-muted">n/a</text>
  <line x1="20" y1="466" x2="930" y2="466" class="grid-h" />

  <!-- Row 10: Inflate (y=466) -->
  <text x="28" y="487" class="row-lbl">Inflate (face pressure)</text>
  <text x="220" y="487" class="check">✓</text>
  <text x="400" y="487" class="cell-muted">n/a</text>
  <text x="580" y="487" class="cell-muted">n/a</text>
  <text x="760" y="487" class="cell-muted">n/a</text>
  <line x1="20" y1="500" x2="930" y2="500" class="grid-h" />

  <!-- Row 11: Friction (y=500) -->
  <text x="28" y="521" class="row-lbl">Friction</text>
  <text x="28" y="533" class="row-sub">(shared contact param)</text>
  <text x="220" y="521" class="check">✓</text>
  <text x="400" y="521" class="check">✓</text>
  <text x="580" y="521" class="check">✓</text>
  <text x="760" y="521" class="check">✓</text>
  <line x1="20" y1="534" x2="930" y2="534" class="grid-h" />

  <!-- Row 12: Contact Gap (y=534) -->
  <text x="28" y="555" class="row-lbl">Contact Gap / Offset</text>
  <text x="28" y="567" class="row-sub">(absolute or ratio)</text>
  <text x="220" y="555" class="check">✓</text>
  <text x="400" y="555" class="check">✓</text>
  <text x="580" y="555" class="check">✓</text>
  <text x="760" y="555" class="check">✓</text>
  <line x1="20" y1="568" x2="930" y2="568" class="grid-h" />

  <!-- Row 13: Pins (y=568) -->
  <text x="28" y="589" class="row-lbl">Pin vertex storage</text>
  <text x="220" y="589" class="cell-mono">Blender vertex group</text>
  <text x="400" y="589" class="cell-mono">Blender vertex group</text>
  <text x="580" y="589" class="cell-mono">_pin_&lt;name&gt; custom prop</text>
  <text x="580" y="601" class="row-sub">(curves have no VGs)</text>
  <text x="760" y="589" class="cell-muted">n/a</text>
  <text x="760" y="601" class="row-sub">(Transform sub-box instead)</text>
  <line x1="20" y1="602" x2="930" y2="602" class="grid-h" />

  <!-- Row 14: Overlay color (y=602) -->
  <text x="28" y="623" class="row-lbl">Default overlay color</text>
  <rect x="220" y="613" width="18" height="14" rx="2" class="sw-shell" />
  <text x="244" y="624" class="cell-mono">(0, 0.75, 0)</text>
  <rect x="400" y="613" width="18" height="14" rx="2" class="sw-solid" />
  <text x="424" y="624" class="cell-mono">(0.75, 0, 0)</text>
  <rect x="580" y="613" width="18" height="14" rx="2" class="sw-rod" />
  <text x="604" y="624" class="cell-mono">(0.75, 0.75, 0)</text>
  <rect x="760" y="613" width="18" height="14" rx="2" class="sw-static" />
  <text x="784" y="624" class="cell-mono">(0, 0, 0.75)</text>
  <line x1="20" y1="636" x2="930" y2="636" class="grid-h" />

  <!-- Outer border -->
  <line x1="20" y1="160" x2="930" y2="160" class="grid-h" />
  <line x1="20" y1="160" x2="20" y2="636" class="grid-v" />
  <line x1="930" y1="160" x2="930" y2="636" class="grid-v" />
</svg>
